<svg width="40" height="40" viewBox="0 0 40 40" fill="none" xmlns="http://www.w3.org/2000/svg">
<rect x="0.00012207" width="40" height="40" rx="5" fill="#603524"/>
<path d="M20.0001 19.2143C19.1476 19.2143 18.3301 18.8756 17.7273 18.2728C17.1245 17.67 16.7858 16.8525 16.7858 16C16.7858 15.1475 17.1245 14.33 17.7273 13.7272C18.3301 13.1244 19.1476 12.7857 20.0001 12.7857C20.8526 12.7857 21.6702 13.1244 22.273 13.7272C22.8758 14.33 23.2144 15.1475 23.2144 16C23.2144 16.4221 23.1313 16.8401 22.9697 17.2301C22.8082 17.62 22.5714 17.9744 22.273 18.2728C21.9745 18.5713 21.6202 18.8081 21.2302 18.9696C20.8402 19.1311 20.4222 19.2143 20.0001 19.2143ZM20.0001 7C17.6132 7 15.324 7.94821 13.6362 9.63604C11.9483 11.3239 11.0001 13.6131 11.0001 16C11.0001 22.75 20.0001 32.7143 20.0001 32.7143C20.0001 32.7143 29.0001 22.75 29.0001 16C29.0001 13.6131 28.0519 11.3239 26.3641 9.63604C24.6763 7.94821 22.3871 7 20.0001 7Z" fill="white"/>
</svg>
