<svg width="28" height="28" viewBox="0 0 28 28" fill="none" xmlns="http://www.w3.org/2000/svg">
<path d="M24.4168 10.5276L23.4307 6.90951C23.0501 5.51367 22.8598 4.81645 22.4695 4.29006C22.0804 3.76709 21.5519 3.36423 20.9445 3.12756C20.3334 2.88867 19.6112 2.88867 18.1668 2.88867M3.58344 10.5276L4.56955 6.90951C4.9501 5.51367 5.14038 4.81645 5.53066 4.29006C5.91979 3.76709 6.44828 3.36423 7.05566 3.12756C7.66677 2.88867 8.38899 2.88867 9.83344 2.88867" stroke="#603524" stroke-width="2.08333"/>
<path d="M9.83344 2.88889C9.83344 2.52053 9.97976 2.16726 10.2402 1.9068C10.5007 1.64633 10.854 1.5 11.2223 1.5H16.7779C17.1462 1.5 17.4995 1.64633 17.76 1.9068C18.0204 2.16726 18.1668 2.52053 18.1668 2.88889C18.1668 3.25724 18.0204 3.61051 17.76 3.87098C17.4995 4.13145 17.1462 4.27778 16.7779 4.27778H11.2223C10.854 4.27778 10.5007 4.13145 10.2402 3.87098C9.97976 3.61051 9.83344 3.25724 9.83344 2.88889Z" fill="white" fill-opacity="0.5" stroke="#603524" stroke-width="2.08333"/>
<path d="M8.44458 15.3887V20.9442M19.5557 15.3887V20.9442M14.0001 15.3887V20.9442" stroke="#603524" stroke-width="2.08333" stroke-linecap="round" stroke-linejoin="round"/>
<path d="M2.70013 20.1877C3.45846 23.2196 3.83763 24.7349 4.9668 25.6182C6.09735 26.5002 7.65985 26.5002 10.7849 26.5002H17.2154C20.3404 26.5002 21.9029 26.5002 23.0349 25.6182C24.164 24.7349 24.5432 23.2196 25.3001 20.1877C26.4918 15.421 27.0876 13.0391 25.8376 11.4363C24.5862 9.8335 22.1293 9.8335 17.2168 9.8335H10.7849C5.87096 9.8335 3.41541 9.8335 2.16402 11.4363C1.4293 12.3766 1.33068 13.5863 1.6168 15.3891" stroke="#603524" stroke-width="2.08333" stroke-linecap="round"/>
</svg>
