<svg width="34" height="34" viewBox="0 0 34 34" fill="none" xmlns="http://www.w3.org/2000/svg">
<path d="M27.0835 13.1941L26.0973 9.57607C25.7168 8.18024 25.5265 7.48301 25.1362 6.95663C24.7471 6.43366 24.2186 6.0308 23.6112 5.79413C23.0001 5.55524 22.2779 5.55524 20.8335 5.55524M6.25012 13.1941L7.23623 9.57607C7.61679 8.18024 7.80707 7.48301 8.19734 6.95663C8.58648 6.43366 9.11497 6.0308 9.72234 5.79413C10.3335 5.55524 11.0557 5.55524 12.5001 5.55524" stroke="#F7C860" stroke-width="2.08333"/>
<path d="M12.5001 5.55539C12.5001 5.18704 12.6465 4.83377 12.9069 4.5733C13.1674 4.31283 13.5207 4.1665 13.889 4.1665H19.4446C19.8129 4.1665 20.1662 4.31283 20.4267 4.5733C20.6871 4.83377 20.8335 5.18704 20.8335 5.55539C20.8335 5.92375 20.6871 6.27702 20.4267 6.53748C20.1662 6.79795 19.8129 6.94428 19.4446 6.94428H13.889C13.5207 6.94428 13.1674 6.79795 12.9069 6.53748C12.6465 6.27702 12.5001 5.92375 12.5001 5.55539Z" fill="white" fill-opacity="0.5" stroke="#F7C860" stroke-width="2.08333"/>
<path d="M5.36679 22.854C6.12512 25.8859 6.50428 27.4012 7.63345 28.2845C8.76401 29.1665 10.3265 29.1665 13.4515 29.1665H19.8821C23.0071 29.1665 24.5696 29.1665 25.7015 28.2845C26.8307 27.4012 27.2098 25.8859 27.9668 22.854C29.1585 18.0873 29.7543 15.7054 28.5043 14.1026C27.2529 12.4998 24.796 12.4998 19.8835 12.4998H13.4515C8.53762 12.4998 6.08206 12.4998 4.83067 14.1026C4.09595 15.0429 3.99734 16.2526 4.28345 18.0554" stroke="#F7C860" stroke-width="2.08333" stroke-linecap="round"/>
<path fill-rule="evenodd" clip-rule="evenodd" d="M16.6666 15.6667C16.9318 15.6667 17.1862 15.772 17.3737 15.9596C17.5613 16.1471 17.6666 16.4015 17.6666 16.6667V19.6667H20.6666C20.9318 19.6667 21.1862 19.772 21.3737 19.9596C21.5613 20.1471 21.6666 20.4015 21.6666 20.6667C21.6666 20.9319 21.5613 21.1863 21.3737 21.3738C21.1862 21.5613 20.9318 21.6667 20.6666 21.6667H17.6666V24.6667C17.6666 24.9319 17.5613 25.1863 17.3737 25.3738C17.1862 25.5613 16.9318 25.6667 16.6666 25.6667C16.4014 25.6667 16.1471 25.5613 15.9595 25.3738C15.772 25.1863 15.6666 24.9319 15.6666 24.6667V21.6667H12.6666C12.4014 21.6667 12.1471 21.5613 11.9595 21.3738C11.772 21.1863 11.6666 20.9319 11.6666 20.6667C11.6666 20.4015 11.772 20.1471 11.9595 19.9596C12.1471 19.772 12.4014 19.6667 12.6666 19.6667H15.6666V16.6667C15.6666 16.4015 15.772 16.1471 15.9595 15.9596C16.1471 15.772 16.4014 15.6667 16.6666 15.6667Z" fill="#F7C860"/>
</svg>
