<svg width="60" height="60" viewBox="0 0 60 60" fill="none" xmlns="http://www.w3.org/2000/svg">
<path d="M17.5979 22.5508C17.5979 26.0008 14.8019 28.7998 11.3489 28.7998C7.89585 28.7998 5.09985 26.0008 5.09985 22.5508C5.09985 19.1008 7.89585 16.2988 11.3489 16.2988C14.8019 16.2988 17.5979 19.0978 17.5979 22.5508Z" fill="#F7C860"/>
<path d="M28.8479 12.5488C28.8479 16.0018 26.0519 18.8008 22.5989 18.8008C19.1459 18.8008 16.3499 16.0018 16.3499 12.5488C16.3499 9.0958 19.1459 6.2998 22.5989 6.2998C26.0519 6.2998 28.8479 9.0988 28.8479 12.5488Z" fill="#F7C860"/>
<path d="M43.8479 12.5488C43.8479 16.0018 41.0519 18.8008 37.5989 18.8008C34.1459 18.8008 31.3499 16.0018 31.3499 12.5488C31.3499 9.0958 34.1459 6.2998 37.5989 6.2998C41.0519 6.2998 43.8479 9.0988 43.8479 12.5488Z" fill="#F7C860"/>
<path d="M55.0979 22.5508C55.0979 26.0008 52.3019 28.7998 48.8489 28.7998C45.3959 28.7998 42.5999 26.0008 42.5999 22.5508C42.5999 19.1008 45.3959 16.2988 48.8489 16.2988C52.3019 16.2988 55.0979 19.0978 55.0979 22.5508Z" fill="#F7C860"/>
<path d="M21.3302 38.4001C20.9372 38.4481 20.5802 38.1661 20.5322 37.7731C20.4842 37.3801 20.7662 37.0201 21.1592 36.9751C21.5522 36.9271 21.9122 37.2061 21.9572 37.6021C22.0052 37.9951 21.7232 38.3521 21.3302 38.4001Z" fill="#F7C860"/>
<path d="M23.94 38.955L23.487 39.345C23.487 39.345 23.463 39.354 23.454 39.345L22.923 39.075C22.896 39.063 22.902 39.021 22.932 39.018L23.916 38.901C23.946 38.895 23.964 38.934 23.94 38.952V38.955Z" fill="#F7C860"/>
<path d="M25.3261 37.9201C24.9301 37.9681 24.5731 37.6861 24.5251 37.2931C24.4801 36.9001 24.7591 36.5401 25.1551 36.4951C25.5481 36.4471 25.9051 36.7291 25.9531 37.1221C26.0011 37.5151 25.7191 37.8721 25.3261 37.9201Z" fill="#F7C860"/>
<path d="M35.7269 36.2162C35.2169 36.1622 34.7609 36.5312 34.7069 37.0412C34.6559 37.5482 35.0249 38.0042 35.5319 38.0582C36.0419 38.1122 36.4979 37.7432 36.5489 37.2332C36.6029 36.7262 36.2339 36.2702 35.7269 36.2162Z" fill="#F7C860"/>
<path d="M43.449 35.9488C41.274 33.3988 39.45 31.2238 37.248 28.6738C36.099 27.3238 34.623 25.9738 32.874 25.3738C32.598 25.2748 32.325 25.1998 32.049 25.1488C31.425 25.0498 30.75 25.0498 30.099 25.0498C29.448 25.0498 28.773 25.0498 28.125 25.1758C27.849 25.2238 27.573 25.2988 27.3 25.4008C25.548 26.0008 24.099 27.3508 22.923 28.7008C20.748 31.2508 18.924 33.4258 16.725 35.9758C13.449 39.2488 9.423 42.8758 10.173 47.9488C10.899 50.4988 12.723 53.0248 15.999 53.7508C17.823 54.1258 23.649 52.6498 29.85 52.6498H30.3C36.498 52.6498 42.324 54.0988 44.148 53.7508C47.424 53.0248 49.248 50.4748 49.974 47.9488C50.748 42.8488 46.725 39.2248 43.449 35.9488ZM36.081 31.5748C36.093 31.4668 36.231 31.4248 36.3 31.5148L38.688 34.6588C38.754 34.7428 38.685 34.8658 38.577 34.8538L35.889 34.5718C35.82 34.5628 35.772 34.5028 35.781 34.4368L36.081 31.5748ZM29.91 51.4078C29.883 51.4978 29.805 51.5638 29.709 51.5758L18.762 52.8898C18.696 52.8958 18.63 52.8778 18.579 52.8328C17.91 52.2538 16.89 51.4108 16.437 50.1688C16.02 49.0378 16.548 48.2548 16.248 47.0848C16.062 46.3618 15.816 46.0018 15.561 45.3028C15.45 44.9998 15.246 44.8468 15.285 44.5288C15.342 44.0758 15.549 43.6858 16.137 43.7338C16.725 43.7788 17.19 44.4118 17.346 44.7208C17.586 45.3028 17.907 45.9958 18.078 46.8628C18.255 47.7568 18 48.6298 18.213 49.1878C18.423 49.7488 18.918 50.8228 19.443 50.9428C19.86 51.0388 19.332 50.5918 19.287 50.5588C19.245 50.5228 19.281 50.6218 18.744 49.9618C18.21 49.3018 19.014 42.2758 18.96 41.8108C18.903 41.3458 18.198 39.6658 18.12 39.5188C18.039 39.3718 18 39.0598 18.045 38.8978C18.087 38.7358 19.317 35.3758 19.317 35.3758C19.581 34.4308 19.95 33.0358 20.112 32.8708C20.274 32.7028 20.418 32.6878 20.577 32.8138C20.739 32.9398 22.242 35.1358 22.242 35.1358C22.242 35.1358 22.659 35.8168 23.046 35.7718C23.433 35.7238 23.676 34.9648 23.676 34.9648C23.676 34.9648 24.393 33.0388 24.708 32.3158C24.798 32.1718 25.05 32.1298 25.209 32.2558C25.467 32.4598 26.034 33.5278 26.559 34.5058C26.559 34.5058 28.488 37.4848 28.569 37.6348C28.65 37.7818 28.686 38.0908 28.644 38.2528C28.599 38.4178 28.305 40.1518 28.371 40.6798C28.434 41.2078 30.429 47.8978 30.507 48.5488C30.573 49.1038 30.066 50.8828 29.91 51.4078ZM42.624 37.9708C41.862 39.1408 40.095 40.3108 39.306 40.7488C38.838 41.1958 38.121 42.4048 39.003 43.6408C41.085 45.7048 40.713 48.8008 40.8 51.1978C40.815 51.6028 40.749 52.0078 40.587 52.3798L40.476 52.6318C40.422 52.7518 40.299 52.8238 40.167 52.8118L30.702 51.8158C30.534 51.7978 30.414 51.6478 30.432 51.4828L32.541 31.3978C32.553 31.2808 32.709 31.2478 32.769 31.3468L35.007 35.1268C35.025 35.1598 35.061 35.1808 35.097 35.1868L42.48 35.9608C42.48 35.9608 42.507 35.9668 42.522 35.9728C42.879 36.1708 43.371 36.8218 42.624 37.9708Z" fill="#F7C860"/>
<path d="M36.5489 37.2332C36.4979 37.7432 36.0419 38.1122 35.5319 38.0582C35.0249 38.0042 34.6559 37.5482 34.7069 37.0412C34.7609 36.5312 35.2169 36.1622 35.7269 36.2162C36.2339 36.2702 36.6029 36.7262 36.5489 37.2332Z" fill="#F7C860"/>
<path d="M36.5489 37.2332C36.4979 37.7432 36.0419 38.1122 35.5319 38.0582C35.0249 38.0042 34.6559 37.5482 34.7069 37.0412C34.7609 36.5312 35.2169 36.1622 35.7269 36.2162C36.2339 36.2702 36.6029 36.7262 36.5489 37.2332Z" fill="#F7C860"/>
<path d="M21.3302 38.4001C20.9372 38.4481 20.5802 38.1661 20.5322 37.7731C20.4842 37.3801 20.7662 37.0201 21.1592 36.9751C21.5522 36.9271 21.9122 37.2061 21.9572 37.6021C22.0052 37.9951 21.7232 38.3521 21.3302 38.4001Z" fill="#F7C860"/>
<path d="M23.94 38.955L23.487 39.345C23.487 39.345 23.463 39.354 23.454 39.345L22.923 39.075C22.896 39.063 22.902 39.021 22.932 39.018L23.916 38.901C23.946 38.895 23.964 38.934 23.94 38.952V38.955Z" fill="#F7C860"/>
<path d="M25.3261 37.9201C24.9301 37.9681 24.5731 37.6861 24.5251 37.2931C24.4801 36.9001 24.7591 36.5401 25.1551 36.4951C25.5481 36.4471 25.9051 36.7291 25.9531 37.1221C26.0011 37.5151 25.7191 37.8721 25.3261 37.9201Z" fill="#F7C860"/>
<path d="M21.3302 38.4001C20.9372 38.4481 20.5802 38.1661 20.5322 37.7731C20.4842 37.3801 20.7662 37.0201 21.1592 36.9751C21.5522 36.9271 21.9122 37.2061 21.9572 37.6021C22.0052 37.9951 21.7232 38.3521 21.3302 38.4001Z" fill="#F7C860"/>
<path d="M25.3261 37.9201C24.9301 37.9681 24.5731 37.6861 24.5251 37.2931C24.4801 36.9001 24.7591 36.5401 25.1551 36.4951C25.5481 36.4471 25.9051 36.7291 25.9531 37.1221C26.0011 37.5151 25.7191 37.8721 25.3261 37.9201Z" fill="#F7C860"/>
<path d="M23.94 38.955L23.487 39.345C23.487 39.345 23.463 39.354 23.454 39.345L22.923 39.075C22.896 39.063 22.902 39.021 22.932 39.018L23.916 38.901C23.946 38.895 23.964 38.934 23.94 38.952V38.955Z" fill="#F7C860"/>
</svg>
