<svg width="40" height="40" viewBox="0 0 40 40" fill="none" xmlns="http://www.w3.org/2000/svg">
<rect x="0.00012207" width="40" height="40" rx="5" fill="#603524"/>
<path d="M29.4774 10H11.0683C10.2548 10.0009 9.47494 10.3244 8.89973 10.8996C8.32453 11.4748 8.00099 12.2547 8.00012 13.0682V26.2175C8.00099 27.031 8.32453 27.8109 8.89973 28.3861C9.47494 28.9613 10.2548 29.2849 11.0683 29.2857H29.4774C30.2909 29.2849 31.0708 28.9613 31.646 28.3861C32.2212 27.8109 32.5447 27.031 32.5456 26.2175V13.0682C32.5447 12.2547 32.2212 11.4748 31.646 10.8996C31.0708 10.3244 30.2909 10.0009 29.4774 10ZM28.7005 15.0751L20.8109 21.2115C20.657 21.3311 20.4677 21.396 20.2729 21.396C20.078 21.396 19.8887 21.3311 19.7348 21.2115L11.8452 15.0751C11.7525 15.0051 11.6747 14.9174 11.6162 14.817C11.5577 14.7167 11.5197 14.6057 11.5045 14.4905C11.4892 14.3754 11.497 14.2584 11.5274 14.1462C11.5578 14.0341 11.6102 13.9292 11.6814 13.8375C11.7527 13.7458 11.8416 13.6691 11.9427 13.6121C12.0439 13.555 12.1554 13.5186 12.2708 13.505C12.3861 13.4914 12.503 13.5008 12.6147 13.5328C12.7264 13.5647 12.8306 13.6186 12.9213 13.6911L20.2729 19.4089L27.6244 13.6911C27.8083 13.5523 28.0394 13.4914 28.2677 13.5216C28.4961 13.5519 28.7034 13.6708 28.8448 13.8526C28.9862 14.0345 29.0503 14.2647 29.0233 14.4934C28.9963 14.7222 28.8804 14.9312 28.7005 15.0751Z" fill="white"/>
</svg>
