<svg width="40" height="40" viewBox="0 0 40 40" fill="none" xmlns="http://www.w3.org/2000/svg">
<rect x="0.00012207" width="40" height="40" rx="5" fill="#603524"/>
<path d="M11.0001 9.6C11.0001 8.64522 11.3794 7.72955 12.0545 7.05442C12.7297 6.37928 13.6453 6 14.6001 6H25.4001C26.3549 6 27.2706 6.37928 27.9457 7.05442C28.6208 7.72955 29.0001 8.64522 29.0001 9.6V31.2C29.0001 32.1548 28.6208 33.0705 27.9457 33.7456C27.2706 34.4207 26.3549 34.8 25.4001 34.8H14.6001C13.6453 34.8 12.7297 34.4207 12.0545 33.7456C11.3794 33.0705 11.0001 32.1548 11.0001 31.2V9.6ZM21.8001 29.4C21.8001 28.9226 21.6105 28.4648 21.2729 28.1272C20.9353 27.7896 20.4775 27.6 20.0001 27.6C19.5227 27.6 19.0649 27.7896 18.7273 28.1272C18.3898 28.4648 18.2001 28.9226 18.2001 29.4C18.2001 29.8774 18.3898 30.3352 18.7273 30.6728C19.0649 31.0104 19.5227 31.2 20.0001 31.2C20.4775 31.2 20.9353 31.0104 21.2729 30.6728C21.6105 30.3352 21.8001 29.8774 21.8001 29.4Z" fill="white"/>
</svg>
